<?xml version="1.0" encoding="utf-8"?>
<!-- Generator: Adobe Illustrator 16.0.0, SVG Export Plug-In . SVG Version: 6.00 Build 0)  -->
<!DOCTYPE svg PUBLIC "-//W3C//DTD SVG 1.1//EN" "http://www.w3.org/Graphics/SVG/1.1/DTD/svg11.dtd">
<svg version="1.1" id="Layer_1" xmlns="http://www.w3.org/2000/svg" xmlns:xlink="http://www.w3.org/1999/xlink" x="0px" y="0px"
	 width="203.333px" height="153.93px" viewBox="0 0 203.333 153.93" enable-background="new 0 0 203.333 153.93"
	 xml:space="preserve">
<path fill="#6C3494" d="M455.584,351.22c0,0-0.644-1.15-1.417-1.896c-0.771-0.748-8.786-6.729-8.786-6.729l1.113,9.039l5.563,2.641
	L455.584,351.22z"/>
<path fill="#6C3494" d="M296.97,351.22c0,0,0.643-1.15,1.416-1.896c0.772-0.748,8.786-6.729,8.786-6.729l-1.112,9.039l-5.563,2.641
	L296.97,351.22z"/>
<path fill="#6C3494" d="M317.043,322.763c0,0-5.773-0.186-11.546-4.656c-5.774-4.469-8.195-8.752-8.195-8.752
	s4.284-3.912,3.166-9.125c-0.84-3.924-3.352-2.236-3.352-2.236s-0.187,3.726-1.304,4.656c-2.794-2.42-2.794-3.91-3.353-8.193
	c-0.555-4.248-10.43,3.166-10.243,4.842s1.489,10.057,11.547,11.174c1.117,2.793,3.726,8.753,10.615,14.153
	c7.856,6.157,10.987,4.655,10.987,4.655L317.043,322.763z"/>
<path fill="#6C3494" d="M435.7,322.763c0,0,5.773-0.186,11.546-4.656c5.774-4.469,8.195-8.752,8.195-8.752s-4.284-3.912-3.166-9.125
	c0.84-3.924,3.352-2.236,3.352-2.236s0.187,3.726,1.303,4.656c2.795-2.42,2.795-3.91,3.354-8.193
	c0.555-4.248,10.43,3.166,10.243,4.842s-1.489,10.057-11.547,11.174c-1.117,2.793-3.726,8.753-10.615,14.153
	c-7.856,6.157-10.987,4.655-10.987,4.655L435.7,322.763z"/>
<path fill="#C8B299" d="M428.072,414.708c0,6.48-23.263,11.732-51.959,11.732c-28.695,0-51.959-5.252-51.959-11.732
	s23.264-11.732,51.959-11.732C404.809,402.976,428.072,408.228,428.072,414.708"/>
<path fill="#6C3494" d="M345.864,390.23c0,0,2.955,4.564,3.224,7.924c0.269,3.355,0.135,13.295,0.135,13.295
	s2.291,2.891,8.729,3.223c7.79,0.404,11.014-2.686,11.014-2.686s0.207-16.787,2.758-19.338
	C364.739,392.648,345.864,390.23,345.864,390.23"/>
<path fill="#6C3494" d="M406.363,390.23c0,0-2.955,4.564-3.224,7.924c-0.269,3.355-0.135,13.295-0.135,13.295
	s-2.291,2.891-8.729,3.223c-7.789,0.404-11.013-2.686-11.013-2.686s-0.207-16.787-2.759-19.338
	C387.488,392.648,406.363,390.23,406.363,390.23"/>
<path fill="#8555A2" d="M447.064,354.029c0.005-4.539-0.832-9.65-2.527-14.961c-7.023-22.578-28.807-48.938-66.95-48.938
	c-0.45,0-0.894,0.011-1.34,0.019c-0.446-0.008-0.892-0.019-1.341-0.019c-38.145,0-59.926,26.36-66.95,48.938
	c-1.694,5.311-2.532,10.422-2.526,14.961c-0.026,3.447,0.414,6.543,1.314,9.104c3.146,8.943,9.507,17.135,24.038,22.67
	c10.538,4.592,24.933,7.555,44.198,7.127c0.427-0.008,0.845-0.021,1.267-0.033c0.421,0.012,0.839,0.025,1.267,0.033
	c19.265,0.428,33.659-2.535,44.197-7.127c14.531-5.535,20.891-13.727,24.038-22.67C446.65,360.572,447.089,357.476,447.064,354.029"
	/>
<g opacity="0.5">
	<g>
		<defs>
			<rect id="SVGID_1_" x="376.246" y="290.128" width="70.819" height="102.842"/>
		</defs>
		<clipPath id="SVGID_2_">
			<use xlink:href="#SVGID_1_"  overflow="visible"/>
		</clipPath>
		<path clip-path="url(#SVGID_2_)" fill="#6C3494" d="M444.537,339.068c-7.023-22.578-28.807-48.938-66.949-48.938
			c-0.451,0-0.895,0.011-1.342,0.019v102.748c0.423,0.012,0.84,0.023,1.267,0.033c19.267,0.428,33.66-2.535,44.199-7.129
			c14.53-5.533,20.89-13.725,24.037-22.668c0.901-2.561,1.341-5.656,1.315-9.104C447.07,349.49,446.232,344.376,444.537,339.068"/>
	</g>
</g>
<path fill="#FFFFFF" d="M375.796,317.284c9.777,0,20.766-1.862,23.279-11.36c4.115-15.545-10.057-28.308-22.72-27.935
	c0,0-25.366,0.299-23.652,24.862C353.542,314.863,366.019,317.284,375.796,317.284"/>
<path fill="#8555A2" d="M375.796,318.96c-15.25,0-24.045-5.68-24.764-15.993c-0.53-7.597,1.354-13.786,5.602-18.394
	c7.396-8.024,19.202-8.254,19.701-8.262c0.168-0.005,0.363-0.007,0.562-0.007c7.321,0,14.863,3.888,19.682,10.147
	c4.504,5.85,5.966,12.918,4.117,19.899C398.482,314.719,390.105,318.96,375.796,318.96 M376.898,279.658
	c-0.166,0-0.328,0.002-0.494,0.006c-0.136,0.002-10.922,0.238-17.319,7.197c-3.587,3.902-5.171,9.243-4.708,15.873
	c0.742,10.641,12.059,12.875,21.42,12.875c12.773,0,19.857-3.31,21.658-10.113c1.576-5.955,0.322-11.992-3.531-16.998
	C389.791,283.126,383.107,279.658,376.898,279.658"/>
<path fill="#242D17" d="M376.542,290.769c-0.36,0-0.728,0.021-1.098,0.055c1.584,1.398,2.588,3.439,2.588,5.719
	c0,4.217-3.419,7.636-7.636,7.636c-3.034,0-5.646-1.774-6.879-4.338c-0.59,1.565-0.801,2.929-0.385,4.837
	c1.862,8.567,11.174,8.254,13.409,8.254c3.165,0,12.013-1.099,13.222-9.742C391.066,293.876,382.128,290.769,376.542,290.769"/>
<path fill="#FFFFFF" d="M383.494,307.853c0,1.441-1.168,2.609-2.609,2.609s-2.609-1.168-2.609-2.609s1.168-2.609,2.609-2.609
	S383.494,306.412,383.494,307.853"/>
<rect x="324.189" y="322.349" fill="#F3F3F3" width="104.253" height="57.406"/>
<path fill="#010101" d="M361.777,332.919c0.013,0.226-0.088,0.371-0.303,0.437s-0.461,0.108-0.738,0.131
	c-0.276,0.024-0.549,0.069-0.815,0.138c-0.269,0.067-0.448,0.219-0.54,0.448c-0.092,0.231-0.163,0.511-0.211,0.837
	c-0.049,0.327-0.085,0.682-0.107,1.069c-0.023,0.384-0.031,0.784-0.022,1.196c0.008,0.414,0.024,0.824,0.049,1.229
	c0.052,0.932,0.14,1.928,0.261,2.988c0.162-0.053,0.369-0.117,0.621-0.193c0.207-0.057,0.467-0.123,0.78-0.201
	c0.312-0.078,0.683-0.168,1.112-0.268c0.447-0.086,0.805-0.107,1.07-0.062s0.447,0.121,0.543,0.23
	c0.098,0.107,0.108,0.225,0.032,0.357c-0.075,0.133-0.231,0.229-0.468,0.289c-0.49,0.148-0.947,0.305-1.374,0.473
	s-0.802,0.328-1.124,0.482c-0.381,0.188-0.717,0.365-1.008,0.533c0.14,1.15,0.229,2.199,0.27,3.146
	c0.024,0.404,0.035,0.814,0.037,1.229c0.001,0.414-0.01,0.795-0.036,1.143c-0.024,0.348-0.071,0.65-0.139,0.912
	c-0.067,0.26-0.152,0.443-0.251,0.557c-0.2,0.207-0.418,0.387-0.658,0.547c-0.24,0.154-0.466,0.262-0.681,0.32
	c-0.216,0.059-0.407,0.057-0.576,0c-0.169-0.061-0.283-0.199-0.341-0.424c-0.037-0.117-0.07-0.299-0.1-0.547
	c-0.029-0.246-0.056-0.523-0.082-0.83c-0.024-0.307-0.043-0.641-0.056-1.002c-0.015-0.361-0.03-0.713-0.05-1.059
	c-0.033-0.826-0.07-1.721-0.11-2.682c-0.057,0.033-0.116,0.074-0.173,0.123c-0.13,0.096-0.314,0.16-0.553,0.189
	c-0.328,0.064-0.581-0.012-0.76-0.229c-0.178-0.215-0.194-0.514-0.051-0.9c0.064-0.184,0.163-0.355,0.297-0.514
	c0.135-0.158,0.279-0.301,0.438-0.432c0.172-0.145,0.369-0.27,0.588-0.373c-0.14-1.15-0.228-2.26-0.257-3.328
	c-0.027-0.449-0.038-0.916-0.037-1.397c0.002-0.481,0.021-0.954,0.055-1.415s0.084-0.896,0.151-1.307s0.16-0.771,0.276-1.078
	c0.197-0.51,0.457-0.896,0.781-1.163c0.322-0.267,0.67-0.44,1.043-0.522c0.371-0.082,0.746-0.1,1.125-0.055
	c0.379,0.047,0.724,0.129,1.03,0.247c0.308,0.118,0.562,0.246,0.757,0.385C361.67,332.714,361.771,332.83,361.777,332.919"/>
<path fill="#010101" d="M362.867,339.724c-0.17-0.082-0.322-0.125-0.459-0.133s-0.261-0.008-0.373-0.002
	c-0.111,0.008-0.211,0.002-0.295-0.016c-0.082-0.018-0.158-0.086-0.227-0.201c-0.05-0.104,0.014-0.25,0.189-0.441
	c0.179-0.189,0.422-0.355,0.729-0.492c0.309-0.139,0.659-0.207,1.05-0.207c0.392,0,0.777,0.133,1.153,0.396
	c0.331,0.252,0.604,0.496,0.82,0.732c0.218,0.236,0.392,0.447,0.522,0.635c0.147,0.219,0.259,0.43,0.33,0.637
	c0.397-0.43,0.813-0.791,1.247-1.088c0.377-0.264,0.801-0.482,1.273-0.66c0.472-0.178,0.951-0.213,1.439-0.105
	c0.122,0.039,0.184,0.129,0.186,0.271c0,0.143-0.051,0.301-0.154,0.473s-0.247,0.338-0.434,0.5c-0.188,0.16-0.414,0.279-0.681,0.354
	c-0.519,0.15-0.922,0.4-1.211,0.748s-0.502,0.748-0.642,1.199c-0.141,0.453-0.219,0.932-0.235,1.438
	c-0.015,0.506-0.01,0.99,0.017,1.455c0.07,0.975-0.022,1.707-0.279,2.197c-0.26,0.488-0.627,0.762-1.106,0.818
	c-0.553,0.062-0.981-0.168-1.282-0.693s-0.488-1.434-0.562-2.725c-0.032-0.811-0.064-1.516-0.1-2.117
	c-0.033-0.6-0.086-1.105-0.153-1.516c-0.07-0.408-0.163-0.73-0.283-0.967C363.228,339.98,363.068,339.818,362.867,339.724"/>
<path fill="#010101" d="M371.276,339.445c0.187-0.42,0.444-0.787,0.772-1.107c0.328-0.318,0.692-0.585,1.096-0.796
	c0.4-0.212,0.828-0.376,1.281-0.493c0.452-0.116,0.896-0.188,1.332-0.212c0.451,0.004,0.846,0.129,1.185,0.374
	c0.338,0.242,0.586,0.568,0.745,0.973c0.158,0.404,0.212,0.865,0.158,1.381s-0.244,1.045-0.576,1.59
	c-0.357,0.594-0.748,1.045-1.176,1.357c-0.426,0.309-0.822,0.535-1.19,0.678c-0.427,0.176-0.853,0.268-1.272,0.275
	c0.019,0.572,0.106,1.057,0.264,1.453c0.07,0.178,0.152,0.342,0.244,0.494s0.207,0.287,0.351,0.398
	c0.142,0.111,0.312,0.188,0.509,0.23c0.199,0.041,0.424,0.031,0.676-0.027c0.535-0.123,0.963-0.346,1.283-0.672
	c0.321-0.328,0.583-0.656,0.791-0.984c0.206-0.328,0.374-0.611,0.504-0.852c0.129-0.242,0.264-0.336,0.402-0.285
	c0.169,0.066,0.266,0.25,0.292,0.549c0.024,0.299-0.028,0.656-0.154,1.072c-0.127,0.412-0.323,0.84-0.593,1.287
	c-0.268,0.443-0.618,0.828-1.051,1.154c-0.434,0.326-0.939,0.562-1.518,0.709c-0.58,0.146-1.236,0.127-1.97-0.057
	c-0.595-0.146-1.099-0.402-1.512-0.77c-0.413-0.369-0.746-0.801-1.001-1.299c-0.254-0.498-0.436-1.037-0.545-1.619
	c-0.109-0.58-0.153-1.16-0.133-1.742c0.02-0.582,0.1-1.139,0.242-1.674S371.042,339.833,371.276,339.445 M373.511,341.777
	c0.192-0.041,0.407-0.113,0.643-0.217c0.206-0.088,0.428-0.213,0.667-0.377s0.494-0.391,0.763-0.678
	c0.256-0.27,0.426-0.527,0.51-0.773c0.082-0.246,0.129-0.453,0.133-0.617c0.004-0.195-0.035-0.375-0.121-0.535
	c-0.213-0.049-0.438-0.035-0.674,0.039c-0.207,0.07-0.434,0.205-0.679,0.4s-0.491,0.494-0.739,0.9
	c-0.191,0.312-0.326,0.586-0.402,0.824c-0.078,0.238-0.127,0.432-0.148,0.584C373.443,341.511,373.458,341.66,373.511,341.777"/>
<path fill="#010101" d="M379.966,338.945c0.188-0.418,0.443-0.785,0.771-1.105s0.692-0.586,1.096-0.797
	c0.402-0.211,0.83-0.376,1.281-0.493c0.453-0.116,0.897-0.187,1.332-0.212c0.453,0.004,0.848,0.129,1.186,0.374
	c0.338,0.243,0.586,0.569,0.745,0.974c0.157,0.404,0.211,0.865,0.157,1.379c-0.054,0.516-0.244,1.047-0.576,1.592
	c-0.356,0.594-0.748,1.045-1.174,1.355c-0.428,0.311-0.824,0.537-1.192,0.678c-0.427,0.176-0.851,0.268-1.272,0.277
	c0.019,0.57,0.106,1.055,0.266,1.453c0.068,0.176,0.15,0.342,0.242,0.492c0.092,0.154,0.207,0.287,0.351,0.4
	c0.142,0.111,0.312,0.188,0.51,0.229s0.423,0.033,0.677-0.027c0.533-0.121,0.961-0.344,1.281-0.672
	c0.321-0.326,0.584-0.654,0.791-0.982s0.375-0.613,0.504-0.852c0.129-0.244,0.264-0.336,0.403-0.285
	c0.168,0.064,0.265,0.248,0.291,0.549c0.024,0.299-0.026,0.656-0.154,1.07c-0.127,0.412-0.323,0.842-0.593,1.287
	c-0.268,0.445-0.618,0.83-1.051,1.156c-0.434,0.326-0.939,0.562-1.518,0.707c-0.58,0.148-1.236,0.129-1.969-0.055
	c-0.595-0.148-1.1-0.404-1.512-0.771c-0.413-0.369-0.747-0.801-1.001-1.299c-0.255-0.496-0.437-1.035-0.545-1.617
	c-0.109-0.58-0.154-1.16-0.134-1.742c0.02-0.582,0.101-1.139,0.242-1.676C379.545,339.796,379.732,339.335,379.966,338.945
	 M382.201,341.279c0.192-0.043,0.408-0.113,0.644-0.219c0.205-0.086,0.427-0.211,0.667-0.377c0.238-0.164,0.493-0.389,0.762-0.676
	c0.256-0.27,0.426-0.529,0.51-0.773c0.084-0.246,0.129-0.453,0.135-0.617c0.003-0.197-0.037-0.377-0.121-0.535
	c-0.215-0.049-0.44-0.036-0.676,0.039c-0.207,0.07-0.434,0.203-0.678,0.398c-0.246,0.197-0.49,0.494-0.738,0.9
	c-0.193,0.312-0.328,0.588-0.404,0.824c-0.078,0.24-0.126,0.434-0.148,0.586C382.132,341.011,382.148,341.162,382.201,341.279"/>
<path fill="#010101" d="M362.248,367.482c-0.043-0.494-0.098-1.184-0.164-2.068s-0.125-1.854-0.178-2.902
	c-0.054-1.053-0.097-2.131-0.129-3.236c-0.033-1.104-0.035-2.117-0.006-3.037c0.03-0.92,0.102-1.691,0.217-2.316
	c0.115-0.623,0.289-0.986,0.524-1.092c0.413-0.174,0.829-0.205,1.249-0.094s0.804,0.297,1.15,0.555
	c0.346,0.258,0.638,0.561,0.875,0.898c0.238,0.34,0.381,0.652,0.428,0.936c0.218,0.922,0.27,1.762,0.154,2.521
	c-0.113,0.76-0.295,1.463-0.543,2.109c-0.25,0.646-0.518,1.242-0.803,1.785s-0.48,1.066-0.587,1.57
	c0.336-0.697,0.724-1.291,1.162-1.785c0.185-0.205,0.384-0.398,0.601-0.576c0.215-0.178,0.446-0.318,0.697-0.424
	c0.249-0.104,0.51-0.166,0.781-0.182c0.27-0.014,0.551,0.045,0.845,0.178c0.479,0.215,0.856,0.535,1.128,0.965
	c0.274,0.428,0.483,0.912,0.627,1.455c0.144,0.541,0.248,1.111,0.312,1.709s0.131,1.174,0.201,1.729
	c0.068,0.553,0.162,1.062,0.279,1.529c0.116,0.469,0.305,0.838,0.562,1.109c0.368,0.387,0.684,0.65,0.948,0.793
	s0.486,0.227,0.67,0.256c0.182,0.025,0.33,0.031,0.44,0.02c0.113-0.016,0.2,0.006,0.265,0.064c0.048,0.041,0.084,0.088,0.108,0.141
	c0.027,0.051,0.03,0.102,0.011,0.156s-0.082,0.117-0.183,0.191c-0.101,0.072-0.254,0.152-0.461,0.24
	c-0.396,0.158-0.918,0.207-1.56,0.146c-0.645-0.061-1.342-0.332-2.092-0.818c-0.375-0.232-0.67-0.578-0.885-1.031
	c-0.214-0.455-0.389-0.953-0.525-1.494c-0.137-0.543-0.248-1.094-0.332-1.654c-0.084-0.559-0.178-1.07-0.279-1.531
	c-0.104-0.461-0.232-0.832-0.393-1.117c-0.158-0.285-0.375-0.428-0.645-0.426c-0.271,0-0.506,0.115-0.704,0.344
	c-0.198,0.23-0.36,0.535-0.489,0.91c-0.13,0.375-0.229,0.801-0.301,1.271c-0.07,0.471-0.124,0.932-0.156,1.387
	c-0.035,0.453-0.056,0.883-0.062,1.289c-0.007,0.408-0.011,0.732-0.013,0.973c0.007,0.377-0.067,0.645-0.225,0.805
	c-0.156,0.16-0.344,0.244-0.561,0.258c-0.219,0.012-0.449-0.023-0.696-0.107c-0.245-0.084-0.446-0.172-0.603-0.27
	c-0.172-0.111-0.303-0.285-0.391-0.52c-0.09-0.236-0.156-0.475-0.199-0.713C362.275,368.113,362.251,367.814,362.248,367.482
	 M364.533,359.287c0.117-0.562,0.221-1.148,0.307-1.756c0.085-0.607,0.107-1.137,0.066-1.586c-0.057-0.447-0.14-0.83-0.246-1.15
	c-0.108-0.314-0.228-0.527-0.354-0.633c-0.127-0.105-0.246-0.08-0.357,0.076c-0.111,0.158-0.189,0.486-0.236,0.984
	c-0.047,0.5-0.059,1.1-0.033,1.799s0.068,1.367,0.126,2.002c0.06,0.637,0.138,1.396,0.233,2.281
	C364.25,360.523,364.414,359.851,364.533,359.287"/>
<path fill="#010101" d="M374.699,360.509c-0.006,0.152-0.006,0.408,0,0.771c0.006,0.359,0.021,0.76,0.047,1.203
	c0.024,0.443,0.065,0.904,0.123,1.381c0.059,0.48,0.137,0.916,0.233,1.309c0.099,0.395,0.229,0.715,0.394,0.959
	c0.166,0.248,0.367,0.365,0.608,0.352c0.345-0.02,0.634-0.166,0.867-0.436c0.233-0.268,0.429-0.604,0.586-1.004
	c0.159-0.4,0.274-0.848,0.353-1.342c0.076-0.492,0.136-0.975,0.178-1.445c0.04-0.469,0.06-0.906,0.059-1.312
	s-0.001-0.723,0.002-0.949c-0.001-0.271,0.067-0.471,0.203-0.6c0.135-0.127,0.309-0.199,0.518-0.221
	c0.211-0.02,0.437,0.01,0.684,0.086c0.245,0.074,0.477,0.174,0.693,0.299c0.22,0.121,0.4,0.266,0.545,0.43
	c0.145,0.166,0.229,0.332,0.256,0.494c0.027,0.225,0.039,0.553,0.033,0.98c-0.006,0.43-0.004,0.912,0.004,1.445
	c0.008,0.535,0.027,1.084,0.06,1.646c0.033,0.562,0.104,1.078,0.213,1.547c0.11,0.469,0.261,0.865,0.453,1.193
	s0.448,0.52,0.767,0.576c0.289,0.059,0.49,0.145,0.603,0.26s0.129,0.23,0.054,0.348c-0.076,0.117-0.236,0.211-0.479,0.287
	c-0.245,0.074-0.579,0.086-1.005,0.035c-0.696-0.08-1.242-0.291-1.639-0.629c-0.396-0.34-0.695-0.697-0.897-1.078
	c-0.237-0.439-0.392-0.926-0.47-1.465c-0.16,0.613-0.385,1.145-0.676,1.598c-0.246,0.406-0.576,0.762-0.988,1.062
	c-0.412,0.303-0.928,0.426-1.549,0.371s-1.139-0.225-1.554-0.51c-0.416-0.283-0.759-0.637-1.032-1.059
	c-0.271-0.42-0.484-0.885-0.634-1.396s-0.262-1.027-0.338-1.551c-0.069-0.418-0.115-0.838-0.14-1.258s-0.031-0.811-0.022-1.172
	c0.009-0.363,0.037-0.674,0.082-0.932c0.045-0.26,0.104-0.428,0.175-0.506c0.086-0.08,0.268-0.176,0.549-0.281
	c0.279-0.105,0.572-0.172,0.881-0.197c0.308-0.025,0.584,0.008,0.83,0.1S374.697,360.193,374.699,360.509"/>
<path fill="#010101" d="M393.175,365.615c0.322-0.152,0.574-0.227,0.756-0.223s0.297,0.055,0.348,0.15
	c0.05,0.094,0.038,0.219-0.036,0.373c-0.073,0.156-0.196,0.305-0.369,0.451c-0.144,0.113-0.319,0.268-0.526,0.459
	s-0.422,0.396-0.644,0.613c-0.22,0.215-0.435,0.428-0.64,0.635c-0.207,0.207-0.381,0.375-0.525,0.504
	c0.146,0.701,0.247,1.412,0.305,2.141c0.056,0.727,0.051,1.428-0.016,2.102s-0.205,1.299-0.412,1.875
	c-0.208,0.578-0.504,1.057-0.888,1.441c-0.541,0.543-1.103,0.869-1.685,0.977c-0.58,0.109-1.103,0.041-1.568-0.203
	c-0.467-0.244-0.844-0.641-1.131-1.189c-0.287-0.547-0.401-1.207-0.34-1.979c0.076-0.787,0.279-1.494,0.612-2.113
	c0.333-0.623,0.691-1.146,1.074-1.574c0.452-0.51,0.946-0.951,1.481-1.328c-0.021-0.119-0.062-0.283-0.117-0.49
	c-0.041-0.18-0.107-0.404-0.197-0.678c-0.092-0.273-0.21-0.623-0.355-1.053c-0.09-0.252-0.196-0.49-0.322-0.715
	c-0.127-0.227-0.247-0.42-0.361-0.578c-0.146-0.188-0.284-0.354-0.413-0.496c-0.224,0.283-0.458,0.539-0.7,0.762
	c-0.201,0.193-0.425,0.369-0.671,0.525c-0.247,0.156-0.483,0.242-0.709,0.254c-0.239,0.014-0.517-0.098-0.832-0.334
	c-0.315-0.238-0.6-0.561-0.856-0.967c-0.258-0.408-0.465-0.879-0.623-1.41c-0.158-0.535-0.209-1.088-0.153-1.664
	c0.073-0.576,0.181-1.041,0.328-1.396c0.144-0.354,0.308-0.639,0.492-0.854c0.183-0.213,0.386-0.371,0.604-0.475
	c0.221-0.104,0.442-0.182,0.664-0.24c0.326-0.08,0.725-0.057,1.19,0.066c0.467,0.123,0.913,0.291,1.339,0.498
	c0.425,0.211,0.793,0.43,1.1,0.66s0.455,0.414,0.448,0.551c-0.006,0.137-0.166,0.193-0.476,0.174s-0.664-0.049-1.066-0.086
	c-0.4-0.037-0.793-0.045-1.175-0.023c-0.384,0.023-0.644,0.158-0.779,0.408c-0.136,0.248-0.239,0.541-0.312,0.875
	c-0.069,0.336-0.108,0.67-0.111,1c-0.003,0.332,0.033,0.637,0.107,0.908c0.076,0.275,0.201,0.475,0.375,0.6
	c0.095,0.072,0.217,0.037,0.367-0.1c0.149-0.137,0.323-0.305,0.524-0.504c0.198-0.199,0.42-0.393,0.667-0.58
	c0.245-0.188,0.512-0.309,0.803-0.363c0.29-0.053,0.6,0.004,0.924,0.174c0.326,0.17,0.67,0.514,1.031,1.035
	c0.213,0.305,0.441,0.656,0.682,1.057c0.242,0.4,0.468,0.979,0.677,1.734c0.376-0.262,0.729-0.512,1.063-0.75
	C392.46,366.015,392.81,365.802,393.175,365.615 M389.013,374.144c0.074-0.26,0.111-0.59,0.111-0.988s-0.011-0.795-0.033-1.186
	c-0.041-0.449-0.091-0.92-0.149-1.412c-0.3,0.287-0.562,0.588-0.783,0.902c-0.196,0.268-0.362,0.576-0.5,0.934
	c-0.138,0.354-0.181,0.725-0.128,1.113c0.051,0.373,0.148,0.643,0.295,0.807c0.145,0.164,0.296,0.254,0.456,0.268
	c0.158,0.014,0.306-0.025,0.444-0.115C388.864,374.375,388.958,374.267,389.013,374.144"/>
<path fill="#010101" d="M398.166,356.927c0.065,0.115,0.064,0.211-0.006,0.281c-0.072,0.072-0.178,0.146-0.314,0.223
	c-0.141,0.076-0.297,0.168-0.471,0.275c-0.176,0.107-0.34,0.256-0.494,0.447c-0.154,0.188-0.28,0.43-0.377,0.721
	s-0.131,0.656-0.106,1.09c0.01,0.436,0.135,0.852,0.376,1.244s0.531,0.77,0.868,1.137c0.337,0.363,0.703,0.719,1.101,1.064
	c0.396,0.348,0.754,0.703,1.076,1.068c0.323,0.365,0.581,0.742,0.777,1.131c0.195,0.387,0.275,0.791,0.238,1.217
	c-0.051,0.424-0.267,0.793-0.647,1.109c-0.38,0.314-0.851,0.568-1.413,0.76c-0.561,0.189-1.171,0.311-1.831,0.363
	s-1.282,0.031-1.866-0.062c-0.587-0.094-1.098-0.264-1.533-0.51s-0.717-0.576-0.847-0.99c-0.2-0.605-0.278-1.121-0.235-1.545
	s0.146-0.781,0.311-1.068c0.165-0.289,0.355-0.518,0.57-0.688c0.218-0.17,0.404-0.307,0.564-0.406
	c0.334-0.215,0.563-0.227,0.688-0.039c0.123,0.188,0.07,0.502-0.161,0.936c-0.108,0.219-0.124,0.455-0.05,0.715
	c0.074,0.258,0.228,0.498,0.459,0.719c0.23,0.221,0.521,0.402,0.867,0.549c0.349,0.146,0.738,0.213,1.176,0.203
	c0.271,0,0.543-0.043,0.816-0.125c0.274-0.084,0.496-0.201,0.67-0.355c0.172-0.152,0.271-0.332,0.297-0.537
	c0.024-0.205-0.066-0.428-0.276-0.672s-0.567-0.547-1.069-0.91c-0.503-0.363-1.019-0.766-1.549-1.209
	c-0.529-0.445-1.002-0.922-1.416-1.434c-0.412-0.51-0.634-1.037-0.666-1.576c-0.061-1.064,0.086-1.857,0.439-2.375
	c0.354-0.518,0.955-0.875,1.803-1.074c0.416-0.098,0.759-0.152,1.029-0.158c0.271-0.01,0.486,0.012,0.647,0.062
	s0.282,0.115,0.362,0.193C398.052,356.781,398.117,356.855,398.166,356.927"/>
<path fill="#6C3494" d="M297.456,350.562c1.168-1.201,2.704,2.227,5.462,4.207c5.293,3.801,10.382,3.916,10.382,3.916
	s1.877-5.461,7.084-6.504c3.916-0.785,3.368,2.176,3.368,2.176s-3.329,1.646-3.736,3.035c3.317,1.594,4.678,1.004,8.812-0.182
	c4.099-1.176,1.236,10.781-0.369,11.273c-1.605,0.494-9.777,2.621-14.779-6.125c-2.994,0.086-8.537,0.059-11.412-1.129
	c-1.785-0.738-5.205-1.949-6.34-3.494C294.793,356.191,296.288,351.761,297.456,350.562"/>
<path fill="#6C3494" d="M455.099,350.562c-1.168-1.201-2.705,2.227-5.463,4.207c-5.293,3.801-10.382,3.916-10.382,3.916
	s-1.877-5.461-7.084-6.504c-3.916-0.785-3.368,2.176-3.368,2.176s3.329,1.646,3.737,3.035c-3.317,1.594-4.679,1.004-8.813-0.182
	c-4.099-1.176-1.235,10.781,0.369,11.273c1.605,0.494,9.777,2.621,14.779-6.125c2.994,0.086,8.538,0.059,11.412-1.129
	c1.785-0.738,5.206-1.949,6.34-3.494C457.761,356.191,456.267,351.761,455.099,350.562"/>
<path fill="#6C3494" d="M157.343,48.28c0,0,4.209-3.95,11.446-4.875c7.237-0.924,11.976,0.389,11.976,0.389s-0.26,5.79,4.215,8.683
	c3.367,2.176,3.947-0.791,3.947-0.791s-2.502-2.762-2.371-4.21c3.686-0.265,4.738,0.787,8.16,3.417
	c3.395,2.608,5.129-9.608,3.812-10.66c-1.316-1.053-8.161-6.05-16.054,0.271c-2.765-1.183-8.818-3.549-17.504-2.492
	c-9.901,1.205-11.051,4.48-11.051,4.48L157.343,48.28z"/>
<path fill="#6C3494" d="M164.253,63.493c0,0,5.751-0.49,12.003,3.272s9.155,7.729,9.155,7.729s-3.795,4.381-2.076,9.426
	c1.293,3.795,3.588,1.826,3.588,1.826s-0.25-3.717,0.75-4.771c3.055,2.076,3.229,3.555,4.284,7.74c1.046,4.15,9.979-4.361,9.6-6.004
	c-0.381-1.641-2.653-9.805-12.765-9.738c-1.436-2.643-4.719-8.252-12.189-12.807c-8.516-5.193-11.447-3.337-11.447-3.337
	L164.253,63.493z"/>
<path fill="#6C3494" d="M46.288,48.28c0,0-4.209-3.95-11.446-4.875c-7.237-0.924-11.975,0.389-11.975,0.389s0.26,5.79-4.215,8.683
	c-3.367,2.176-3.948-0.791-3.948-0.791s2.502-2.762,2.371-4.21c-3.685-0.265-4.738,0.787-8.16,3.417
	c-3.394,2.608-5.128-9.608-3.811-10.66c1.316-1.053,8.161-6.05,16.054,0.271c2.764-1.183,8.818-3.549,17.503-2.492
	c9.902,1.205,11.051,4.48,11.051,4.48L46.288,48.28z"/>
<path fill="#6C3494" d="M39.378,63.493c0,0-5.751-0.49-12.003,3.272s-9.155,7.729-9.155,7.729s3.794,4.381,2.076,9.426
	c-1.293,3.795-3.588,1.826-3.588,1.826s0.25-3.717-0.75-4.771c-3.055,2.076-3.229,3.555-4.284,7.74
	c-1.046,4.15-9.98-4.361-9.6-6.004c0.381-1.641,2.654-9.805,12.765-9.738c1.435-2.643,4.719-8.252,12.189-12.807
	c8.516-5.193,11.448-3.337,11.448-3.337L39.378,63.493z"/>
<path fill="#8555A2" d="M31.471,84.867c1.861,13.77,18.982,35.73,69.229,34.613c50.246-1.115,65.281-14.322,70.718-29.775
	c7.071-20.098-14.123-72.951-68.113-72.951C51.57,16.754,28.355,61.808,31.471,84.867"/>
<g opacity="0.5">
	<g>
		<defs>
			<rect id="SVGID_3_" x="31.203" y="3.489" width="170.128" height="136.882"/>
		</defs>
		<clipPath id="SVGID_4_">
			<use xlink:href="#SVGID_3_"  overflow="visible"/>
		</clipPath>
		<g clip-path="url(#SVGID_4_)">
			<defs>
				<path id="SVGID_5_" d="M31.479,84.869c1.861,13.771,18.983,35.73,69.229,34.615c50.246-1.117,65.281-14.324,70.718-29.775
					c7.071-20.1-14.123-72.952-68.112-72.952C51.578,16.756,28.363,61.811,31.479,84.869"/>
			</defs>
			<clipPath id="SVGID_6_">
				<use xlink:href="#SVGID_5_"  overflow="visible"/>
			</clipPath>
			<rect x="102.167" y="3.489" clip-path="url(#SVGID_6_)" fill="#6C3494" width="99.164" height="136.882"/>
		</g>
	</g>
</g>
<path fill="#C8B299" d="M153.527,141.244c0,6.475-23.246,11.725-51.922,11.725c-28.675,0-51.921-5.25-51.921-11.725
	s23.246-11.723,51.921-11.723C130.281,129.521,153.527,134.769,153.527,141.244"/>
<path fill="#6C3494" d="M70.067,116.783c0,0,2.953,4.562,3.221,7.918s0.134,13.287,0.134,13.287s2.29,2.887,8.724,3.221
	c7.784,0.402,11.004-2.686,11.004-2.686s0.209-16.775,2.758-19.324C88.929,119.199,70.067,116.783,70.067,116.783"/>
<path fill="#6C3494" d="M130.523,116.783c0,0-2.953,4.562-3.222,7.918c-0.268,3.355-0.134,13.287-0.134,13.287
	s-2.29,2.887-8.725,3.221c-7.783,0.402-11.004-2.686-11.004-2.686s-0.207-16.775-2.758-19.324
	C111.661,119.199,130.523,116.783,130.523,116.783"/>
<path fill="#010101" d="M102.221,64.722c-15.214,0-49.349-12.5-49.349,4.327c0,20.375,40.385,18.252,48.079,18.252
	c9.86,0,50.183,3.377,50.183-15.182C151.133,53.756,117.016,64.722,102.221,64.722"/>
<path fill="#FFFFFF" d="M84.947,62.41c0.049,4.628,0.842,10.527,8.08,10.828c6.699,0.279,8.123-5.195,8.25-8.595
	C96.531,64.364,87.551,62.968,84.947,62.41"/>
<path fill="#FFFFFF" d="M119.421,62.41c-0.049,4.628-0.842,10.527-8.08,10.828c-6.7,0.279-8.124-5.195-8.25-8.595
	C107.836,64.364,116.816,62.968,119.421,62.41"/>
<path fill="#FFFFFF" d="M101.191,43.889c9.77,0,20.75-1.861,23.262-11.352c4.113-15.535-10.049-28.287-22.703-27.915
	c0,0-25.348,0.299-23.634,24.844C78.952,41.47,91.421,43.889,101.191,43.889"/>
<path fill="#8555A2" d="M101.191,45.564c-15.239,0-24.028-5.676-24.746-15.981c-0.53-7.592,1.353-13.777,5.598-18.382
	c7.391-8.018,19.188-8.248,19.687-8.254c0.168-0.006,0.364-0.008,0.562-0.008c7.317,0,14.854,3.885,19.668,10.14
	c4.5,5.846,5.961,12.909,4.114,19.886C123.86,41.326,115.488,45.564,101.191,45.564 M102.291,6.29c-0.164,0-0.328,0.002-0.492,0.007
	c-0.135,0.002-10.914,0.237-17.308,7.192c-3.584,3.899-5.168,9.236-4.705,15.861c0.742,10.633,12.05,12.865,21.405,12.865
	c12.764,0,19.843-3.306,21.645-10.106c1.573-5.95,0.32-11.983-3.531-16.985C115.173,9.757,108.496,6.29,102.291,6.29"/>
<path fill="#242D17" d="M106.03,16.463c-0.36,0-0.728,0.02-1.099,0.054c1.584,1.398,2.588,3.437,2.588,5.715
	c0,4.214-3.416,7.63-7.631,7.63c-3.031,0-5.643-1.772-6.873-4.334c-0.59,1.563-0.801,2.925-0.385,4.833
	c1.86,8.561,11.166,8.248,13.399,8.248c3.163,0,12.003-1.098,13.212-9.736C120.544,19.568,111.613,16.463,106.03,16.463"/>
<path fill="#FFFFFF" d="M112.977,33.534c0,1.441-1.168,2.608-2.608,2.608s-2.608-1.167-2.608-2.608c0-1.441,1.168-2.608,2.608-2.608
	S112.977,32.093,112.977,33.534"/>
<polygon fill="#8555A2" points="78.625,25.329 124.902,25.329 120.549,13.187 104.513,4.481 89.851,7.459 79.083,19.372 "/>
</svg>
