<?xml version="1.0" encoding="utf-8"?>
<!-- Generator: Adobe Illustrator 16.0.0, SVG Export Plug-In . SVG Version: 6.00 Build 0)  -->
<!DOCTYPE svg PUBLIC "-//W3C//DTD SVG 1.1//EN" "http://www.w3.org/Graphics/SVG/1.1/DTD/svg11.dtd">
<svg version="1.1" id="Layer_1" xmlns="http://www.w3.org/2000/svg" xmlns:xlink="http://www.w3.org/1999/xlink" x="0px" y="0px"
	 width="320px" height="206.586px" viewBox="0 0 320 206.586" enable-background="new 0 0 320 206.586" xml:space="preserve">
<path fill="#6D16A5" d="M114.055,70.719c0,0-3.923-0.126-7.846-3.164c-3.924-3.038-5.569-5.949-5.569-5.949s2.91-2.658,2.151-6.202
	c-0.571-2.666-2.278-1.519-2.278-1.519s-0.126,2.532-0.886,3.164c-1.898-1.646-1.898-2.658-2.278-5.569
	c-0.376-2.886-7.087,2.151-6.961,3.291c0.127,1.139,1.013,6.834,7.848,7.594c0.759,1.898,2.531,5.948,7.214,9.618
	c5.34,4.185,7.468,3.165,7.468,3.165L114.055,70.719z"/>
<path fill="#6D16A5" d="M109.08,83.648c0,0-3.656,1.431-8.459,0.186c-4.803-1.245-7.463-3.271-7.463-3.271s1.627-3.59-0.467-6.547
	c-1.576-2.226-2.692-0.498-2.692-0.498s0.882,2.375,0.433,3.257c-2.394-0.764-2.793-1.694-4.289-4.22
	c-1.484-2.504-5.666,4.771-5.1,5.768c0.565,0.998,3.625,5.882,10.205,3.886c1.447,1.446,4.671,4.469,10.422,5.996
	c6.558,1.741,8.111-0.036,8.111-0.036L109.08,83.648z"/>
<path fill="#6D16A5" d="M194.694,70.719c0,0,3.924-0.126,7.847-3.164c3.924-3.038,5.569-5.949,5.569-5.949s-2.911-2.658-2.151-6.202
	c0.571-2.666,2.278-1.519,2.278-1.519s0.126,2.532,0.886,3.164c1.898-1.646,1.898-2.658,2.278-5.569
	c0.376-2.886,7.087,2.151,6.961,3.291c-0.127,1.139-1.013,6.834-7.847,7.594c-0.76,1.898-2.532,5.948-7.215,9.618
	c-5.339,4.185-7.467,3.165-7.467,3.165L194.694,70.719z"/>
<path fill="#6D16A5" d="M199.67,83.648c0,0,3.655,1.431,8.459,0.186s7.463-3.271,7.463-3.271s-1.628-3.59,0.467-6.547
	c1.576-2.226,2.692-0.498,2.692-0.498s-0.882,2.375-0.433,3.257c2.394-0.764,2.793-1.694,4.29-4.22
	c1.482-2.504,5.665,4.771,5.099,5.768c-0.564,0.998-3.625,5.882-10.204,3.886c-1.446,1.446-4.672,4.469-10.422,5.996
	c-6.558,1.741-8.11-0.036-8.11-0.036L199.67,83.648z"/>
<path fill="#A87B16" d="M189.511,133.206c0,4.404-15.81,7.974-35.312,7.974c-19.502,0-35.311-3.57-35.311-7.974
	s15.809-7.973,35.311-7.973C173.701,125.232,189.511,128.802,189.511,133.206"/>
<path fill="#6D16A5" d="M133.641,116.569c0,0,2.008,3.104,2.19,5.385c0.183,2.282,0.092,9.036,0.092,9.036s1.557,1.965,5.933,2.191
	c5.294,0.273,7.485-1.826,7.485-1.826s0.141-11.408,1.875-13.143C146.469,118.212,133.641,116.569,133.641,116.569"/>
<path fill="#6D16A5" d="M174.756,116.569c0,0-2.008,3.104-2.189,5.385c-0.183,2.282-0.092,9.036-0.092,9.036
	s-1.558,1.965-5.932,2.191c-5.295,0.273-7.485-1.826-7.485-1.826s-0.141-11.408-1.876-13.143
	C161.93,118.212,174.756,116.569,174.756,116.569"/>
<path fill="#A03BE2" d="M202.418,91.967c0.003-3.084-0.566-6.559-1.718-10.167c-4.773-15.345-19.577-33.259-45.499-33.259
	c-0.307,0-0.608,0.007-0.912,0.012c-0.303-0.004-0.605-0.012-0.911-0.012c-25.922,0-40.726,17.914-45.499,33.259
	c-1.152,3.608-1.721,7.083-1.718,10.167c-0.017,2.343,0.282,4.446,0.894,6.188c2.138,6.078,6.46,11.645,16.336,15.406
	c7.162,3.121,16.944,5.135,30.037,4.844c0.291-0.007,0.574-0.015,0.861-0.022c0.287,0.007,0.57,0.016,0.86,0.022
	c13.093,0.291,22.875-1.724,30.038-4.844c9.875-3.761,14.197-9.328,16.336-15.406C202.136,96.414,202.435,94.311,202.418,91.967"/>
<g opacity="0.2">
	<g>
		<defs>
			<rect id="SVGID_1_" x="154.29" y="48.541" width="48.128" height="69.892"/>
		</defs>
		<clipPath id="SVGID_2_">
			<use xlink:href="#SVGID_1_"  overflow="visible"/>
		</clipPath>
		<path clip-path="url(#SVGID_2_)" d="M200.7,81.8c-4.773-15.345-19.577-33.259-45.499-33.259c-0.307,0-0.608,0.007-0.912,0.012
			v69.829c0.286,0.007,0.57,0.016,0.86,0.022c13.092,0.291,22.875-1.723,30.038-4.844c9.875-3.761,14.197-9.328,16.336-15.406
			c0.612-1.741,0.911-3.844,0.895-6.188C202.421,88.883,201.852,85.409,200.7,81.8"/>
	</g>
</g>
<path fill="#FFFFFF" d="M153.984,66.996c6.645,0,14.111-1.266,15.82-7.72c2.797-10.565-6.834-19.238-15.441-18.985
	c0,0-17.238,0.204-16.074,16.897C138.859,65.351,147.339,66.996,153.984,66.996"/>
<path fill="#A03BE2" d="M153.983,68.135c-10.363,0-16.34-3.86-16.829-10.869c-0.361-5.163,0.92-9.369,3.807-12.501
	c5.026-5.453,13.05-5.609,13.388-5.614c0.115-0.003,0.248-0.005,0.382-0.005c4.977,0,10.102,2.642,13.375,6.896
	c3.062,3.976,4.055,8.779,2.799,13.524C169.4,65.253,163.708,68.135,153.983,68.135 M154.732,41.424
	c-0.112,0-0.223,0.001-0.335,0.004c-0.092,0.001-7.423,0.162-11.771,4.892c-2.438,2.652-3.515,6.282-3.2,10.787
	c0.505,7.231,8.195,8.75,14.557,8.75c8.681,0,13.496-2.249,14.72-6.874c1.071-4.046,0.219-8.149-2.4-11.551
	C163.494,43.782,158.952,41.424,154.732,41.424"/>
<path fill="#202B08" d="M154.49,48.976c-0.245,0-0.495,0.014-0.746,0.037c1.076,0.951,1.759,2.337,1.759,3.887
	c0,2.866-2.323,5.189-5.189,5.189c-2.062,0-3.838-1.206-4.675-2.947c-0.401,1.063-0.544,1.989-0.262,3.287
	c1.266,5.823,7.594,5.609,9.113,5.609c2.152,0,8.164-0.747,8.986-6.622C164.362,51.088,158.287,48.976,154.49,48.976"/>
<path fill="#FFFFFF" d="M159.215,60.586c0,0.98-0.794,1.774-1.774,1.774s-1.774-0.793-1.774-1.774c0-0.979,0.795-1.773,1.774-1.773
	S159.215,59.606,159.215,60.586"/>
<path d="M188.135,83.374c0.015-1.971-0.564-3.679-1.773-4.924c-0.647-0.668-1.385-1.196-2.189-1.612
	c-1.705-1.01-3.684-1.381-6.527-1.348c-0.59-0.007-1.186,0.003-1.787,0.03c-8.377,0.375-16.266,0.988-21.592,0.994
	c-5.326-0.006-13.215-0.619-21.592-0.994c-0.601-0.027-1.197-0.037-1.786-0.03c-2.844-0.033-4.823,0.338-6.528,1.348
	c-0.804,0.416-1.541,0.944-2.189,1.612c-1.209,1.246-1.788,2.953-1.773,4.924c-0.013,2.195,0.728,4.558,1.67,6.721
	c0.676,1.55,1.819,3.269,3.341,5.016c5.033,6.848,13.405,13.14,27.717,13.479c0.354,0.012,0.709,0.02,1.066,0.02
	c0.025,0,0.05-0.001,0.075-0.001c0.026,0,0.049,0.001,0.075,0.001c0.356,0,0.71-0.007,1.065-0.02
	c14.312-0.339,22.684-6.631,27.717-13.479c1.523-1.747,2.666-3.466,3.342-5.016C187.406,87.931,188.147,85.569,188.135,83.374"/>
<path fill="#FFFFFF" d="M154.641,76.51c0.324,2.991,1.504,7.46,6.412,7.496c5.848,0.042,5.789-5.768,5.807-8.01
	C163.815,76.174,158.043,76.51,154.641,76.51"/>
<path fill="#FFFFFF" d="M153.93,76.51c-0.324,2.991-1.504,7.46-6.411,7.496c-5.848,0.042-5.79-5.768-5.808-8.01
	C144.756,76.174,150.528,76.51,153.93,76.51"/>
<g>
	<defs>
		<path id="SVGID_3_" d="M175.882,75.52c-8.378,0.375-16.267,0.988-21.592,0.994c-5.326-0.006-13.214-0.619-21.593-0.994
			c-0.6-0.027-1.195-0.037-1.785-0.03c-2.844-0.033-4.823,0.338-6.529,1.348c-0.804,0.415-1.54,0.944-2.188,1.612
			c-1.209,1.246-1.788,2.953-1.773,4.924c-0.013,2.195,0.728,4.558,1.67,6.721c0.676,1.55,1.818,3.269,3.341,5.016
			c5.033,6.848,13.405,13.14,27.717,13.479c0.355,0.012,0.709,0.02,1.065,0.02c0.025,0,0.05,0,0.076-0.001
			c0.025,0.001,0.05,0.001,0.076,0.001c0.355,0,0.71-0.007,1.064-0.02c14.312-0.339,22.683-6.631,27.717-13.479
			c1.522-1.747,2.665-3.465,3.341-5.016c0.942-2.163,1.683-4.525,1.671-6.72c0.015-1.972-0.564-3.679-1.773-4.924
			c-0.649-0.668-1.386-1.197-2.189-1.612c-1.706-1.01-3.685-1.381-6.528-1.348c-0.125-0.001-0.249-0.002-0.373-0.002
			C176.827,75.488,176.355,75.499,175.882,75.52"/>
	</defs>
	<clipPath id="SVGID_4_">
		<use xlink:href="#SVGID_3_"  overflow="visible"/>
	</clipPath>
	<path clip-path="url(#SVGID_4_)" fill="#754C24" d="M165.111,109.3l2.191,0.6c0,0,4.111-3.826,4.941-9.248
		c1.17-7.647-7.437-13.9-7.437-13.9l-2.562,8.933L165.111,109.3z"/>
	<path clip-path="url(#SVGID_4_)" fill="#8C6239" d="M165.111,109.3c0,0,1.476-6.246-1.39-12.812
		c-2.866-6.567-7.892-10.143-7.892-10.143l-2.156,7.003L165.111,109.3z"/>
	<path clip-path="url(#SVGID_4_)" fill="#A67C52" d="M165.111,109.3c0,0-0.619-6.232-5.178-13.17
		c-4.435-6.748-10.806-11.194-10.806-11.194l-2.441,7.888L165.111,109.3z"/>
	<path clip-path="url(#SVGID_4_)" fill="#C7B299" d="M165.111,109.3c-1.631-3.346-4.896-8.681-13.022-14.404
		c-5.124-3.608-10.493-5.453-10.493-5.453l-11.968,37.018c0,0,6.957,0.623,12.043,3.676c7.123,4.277,13.28,10.584,13.28,10.584
		L165.111,109.3z"/>
</g>
<polygon fill="#FFFFFF" points="65.165,162.722 70.458,162.061 70.541,153.128 48.375,153.128 48.375,162.039 53.586,162.722 
	53.586,197.129 48.375,197.873 48.375,206.641 86.007,206.641 86.007,192.249 75.917,192.249 75.524,197.107 65.248,197.129 "/>
<path fill="#FFFFFF" d="M108.533,154.258c0,3.319-2.691,6.011-6.011,6.011c-3.319,0-6.01-2.691-6.01-6.011
	c0-3.32,2.691-6.01,6.01-6.01C105.841,148.248,108.533,150.938,108.533,154.258"/>
<path fill="#FFFFFF" d="M92.156,166.003v7.829l5.183,0.441v23.545l-4.962,0.662v8.16h20.457v-8.16l-4.853-0.718v-32.974
	C107.98,164.789,94.237,165.368,92.156,166.003"/>
<path fill="#FFFFFF" d="M211.942,154.258c0,3.319-2.691,6.011-6.012,6.011c-3.318,0-6.009-2.691-6.009-6.011
	c0-3.32,2.69-6.01,6.009-6.01C209.251,148.248,211.942,150.938,211.942,154.258"/>
<path fill="#FFFFFF" d="M195.565,166.003v7.829l5.184,0.441v23.545l-4.962,0.662v8.16h20.456v-8.16l-4.853-0.718v-32.974
	C211.391,164.789,197.647,165.368,195.565,166.003"/>
<path fill="#FFFFFF" d="M137.503,173.494l3.97,0.669c0,0-5.403,18.444-5.877,20.951c-0.229,0-0.353,0.002-0.628,0.002
	c-1.255-6.382-6.601-25.21-8.271-30.217c-3.032,0.056-11.193,0.772-12.241,1.214v7.829c0,0,2.04,0.276,3.805,0.387
	c1.103,4.576,10.973,32.257,10.973,32.257h11.248c0.883-2.151,10.305-28.936,11.249-32.478c1.207-0.317,3.364-0.614,3.364-0.614
	v-8.208l-17.625-0.035L137.503,173.494z"/>
<path fill="#FFFFFF" d="M176.963,197.775c0,0-0.135-17.989,0.13-19.078c0.499-2.054,2.74-2.944,7.106-3.121
	c1.573-0.064,3.514,0.261,4.896,0.485c0.15-0.676,1.323-10.34,0.625-10.858c-1.227-0.911-5.938-0.365-7.712,0.693
	c-3.259,1.942-4.749,4.737-4.749,4.737l-0.316,0.002l-0.015-5.626c0,0-12.462,0.331-15.771,0.993c0,2.866,0.057,7.885,0.057,7.885
	l5.182,0.44v23.435c0,0-3.873,0.49-4.976,0.71c0,1.765,0.013,8.223,0.013,8.223h20.822l-0.033-8.202L176.963,197.775"/>
<path fill="#FFFFFF" d="M238.263,164.548c-12.471,0-19.108,9.613-19.108,21.472c0,11.859,5.833,21.473,19.108,21.473
	c12.571,0,19.108-9.613,19.108-21.473C257.371,174.161,252.343,164.548,238.263,164.548 M238.28,198.452
	c-6.245,0-7.622-5.592-7.622-12.489s1.708-12.488,7.622-12.488s7.623,5.591,7.623,12.488S244.525,198.452,238.28,198.452"/>
</svg>
