<?xml version="1.0" encoding="utf-8"?>
<!-- Generator: Adobe Illustrator 16.0.0, SVG Export Plug-In . SVG Version: 6.00 Build 0)  -->
<!DOCTYPE svg PUBLIC "-//W3C//DTD SVG 1.1//EN" "http://www.w3.org/Graphics/SVG/1.1/DTD/svg11.dtd">
<svg version="1.1" id="Layer_1" xmlns="http://www.w3.org/2000/svg" xmlns:xlink="http://www.w3.org/1999/xlink" x="0px" y="0px"
	 width="216.964px" height="153.93px" viewBox="0 0 216.964 153.93" enable-background="new 0 0 216.964 153.93"
	 xml:space="preserve">
<path fill="#6C3494" d="M462.251,351.22c0,0-0.644-1.15-1.417-1.896c-0.771-0.748-8.786-6.729-8.786-6.729l1.113,9.039l5.563,2.641
	L462.251,351.22z"/>
<path fill="#6C3494" d="M303.637,351.22c0,0,0.643-1.15,1.416-1.896c0.772-0.748,8.786-6.729,8.786-6.729l-1.112,9.039l-5.563,2.641
	L303.637,351.22z"/>
<path fill="#6C3494" d="M323.71,322.763c0,0-5.773-0.186-11.546-4.656c-5.774-4.469-8.195-8.752-8.195-8.752
	s4.284-3.912,3.166-9.125c-0.84-3.924-3.352-2.236-3.352-2.236s-0.187,3.726-1.304,4.656c-2.794-2.42-2.794-3.91-3.353-8.193
	c-0.555-4.248-10.43,3.166-10.243,4.842s1.489,10.057,11.547,11.174c1.117,2.793,3.726,8.753,10.615,14.153
	c7.856,6.157,10.987,4.655,10.987,4.655L323.71,322.763z"/>
<path fill="#6C3494" d="M442.366,322.763c0,0,5.773-0.186,11.546-4.656c5.774-4.469,8.195-8.752,8.195-8.752
	s-4.284-3.912-3.166-9.125c0.84-3.924,3.352-2.236,3.352-2.236s0.187,3.726,1.303,4.656c2.795-2.42,2.795-3.91,3.354-8.193
	c0.555-4.248,10.43,3.166,10.243,4.842s-1.489,10.057-11.547,11.174c-1.117,2.793-3.726,8.753-10.615,14.153
	c-7.856,6.157-10.987,4.655-10.987,4.655L442.366,322.763z"/>
<path fill="#C8B299" d="M434.738,414.708c0,6.48-23.263,11.732-51.959,11.732c-28.695,0-51.959-5.252-51.959-11.732
	s23.264-11.732,51.959-11.732C411.476,402.976,434.738,408.228,434.738,414.708"/>
<path fill="#6C3494" d="M352.53,390.23c0,0,2.955,4.564,3.224,7.924c0.269,3.355,0.135,13.295,0.135,13.295s2.291,2.891,8.729,3.223
	c7.79,0.404,11.014-2.686,11.014-2.686s0.207-16.787,2.758-19.338C371.405,392.648,352.53,390.23,352.53,390.23"/>
<path fill="#6C3494" d="M413.029,390.23c0,0-2.955,4.564-3.224,7.924c-0.269,3.355-0.135,13.295-0.135,13.295
	s-2.291,2.891-8.729,3.223c-7.789,0.404-11.013-2.686-11.013-2.686s-0.207-16.787-2.759-19.338
	C394.154,392.648,413.029,390.23,413.029,390.23"/>
<path fill="#8555A2" d="M453.73,354.029c0.005-4.539-0.832-9.65-2.527-14.961c-7.023-22.578-28.807-48.938-66.95-48.938
	c-0.45,0-0.894,0.011-1.34,0.019c-0.446-0.008-0.892-0.019-1.341-0.019c-38.145,0-59.926,26.36-66.95,48.938
	c-1.694,5.311-2.532,10.422-2.526,14.961c-0.026,3.447,0.414,6.543,1.314,9.104c3.146,8.943,9.507,17.135,24.038,22.67
	c10.538,4.592,24.933,7.555,44.198,7.127c0.427-0.008,0.845-0.021,1.267-0.033c0.421,0.012,0.839,0.025,1.267,0.033
	c19.265,0.428,33.659-2.535,44.197-7.127c14.531-5.535,20.891-13.727,24.038-22.67C453.316,360.572,453.756,357.476,453.73,354.029"
	/>
<g opacity="0.5">
	<g>
		<defs>
			<rect id="SVGID_1_" x="382.912" y="290.128" width="70.819" height="102.842"/>
		</defs>
		<clipPath id="SVGID_2_">
			<use xlink:href="#SVGID_1_"  overflow="visible"/>
		</clipPath>
		<path clip-path="url(#SVGID_2_)" fill="#6C3494" d="M451.203,339.068c-7.023-22.578-28.807-48.938-66.949-48.938
			c-0.451,0-0.895,0.011-1.342,0.019v102.748c0.423,0.012,0.84,0.023,1.267,0.033c19.267,0.428,33.66-2.535,44.199-7.129
			c14.53-5.533,20.89-13.725,24.037-22.668c0.901-2.561,1.341-5.656,1.315-9.104C453.736,349.49,452.898,344.376,451.203,339.068"/>
	</g>
</g>
<path fill="#FFFFFF" d="M382.463,317.284c9.777,0,20.766-1.862,23.279-11.36c4.115-15.545-10.057-28.308-22.72-27.935
	c0,0-25.366,0.299-23.652,24.862C360.208,314.863,372.686,317.284,382.463,317.284"/>
<path fill="#8555A2" d="M382.463,318.96c-15.25,0-24.045-5.68-24.764-15.993c-0.53-7.597,1.354-13.786,5.602-18.394
	c7.396-8.024,19.202-8.254,19.701-8.262c0.168-0.005,0.363-0.007,0.562-0.007c7.321,0,14.863,3.888,19.682,10.147
	c4.504,5.85,5.966,12.918,4.117,19.899C405.148,314.719,396.771,318.96,382.463,318.96 M383.564,279.658
	c-0.166,0-0.328,0.002-0.494,0.006c-0.136,0.002-10.922,0.238-17.319,7.197c-3.587,3.902-5.171,9.243-4.708,15.873
	c0.742,10.641,12.059,12.875,21.42,12.875c12.773,0,19.857-3.31,21.658-10.113c1.576-5.955,0.322-11.992-3.531-16.998
	C396.457,283.126,389.773,279.658,383.564,279.658"/>
<path fill="#242D17" d="M383.208,290.769c-0.36,0-0.728,0.021-1.098,0.055c1.584,1.398,2.588,3.439,2.588,5.719
	c0,4.217-3.419,7.636-7.636,7.636c-3.034,0-5.646-1.774-6.879-4.338c-0.59,1.565-0.801,2.929-0.385,4.837
	c1.862,8.567,11.174,8.254,13.409,8.254c3.165,0,12.013-1.099,13.222-9.742C397.732,293.876,388.795,290.769,383.208,290.769"/>
<path fill="#FFFFFF" d="M390.16,307.853c0,1.441-1.168,2.609-2.609,2.609s-2.609-1.168-2.609-2.609s1.168-2.609,2.609-2.609
	S390.16,306.412,390.16,307.853"/>
<rect x="330.855" y="322.349" fill="#F3F3F3" width="104.253" height="57.406"/>
<path fill="#010101" d="M368.443,332.919c0.013,0.226-0.088,0.371-0.303,0.437s-0.461,0.108-0.738,0.131
	c-0.276,0.024-0.549,0.069-0.815,0.138c-0.269,0.067-0.448,0.219-0.54,0.448c-0.092,0.231-0.163,0.511-0.211,0.837
	c-0.049,0.327-0.085,0.682-0.107,1.069c-0.023,0.384-0.031,0.784-0.022,1.196c0.008,0.414,0.024,0.824,0.049,1.229
	c0.052,0.932,0.14,1.928,0.261,2.988c0.162-0.053,0.369-0.117,0.621-0.193c0.207-0.057,0.467-0.123,0.78-0.201
	c0.312-0.078,0.683-0.168,1.112-0.268c0.447-0.086,0.805-0.107,1.07-0.062s0.447,0.121,0.543,0.23
	c0.098,0.107,0.108,0.225,0.032,0.357c-0.075,0.133-0.231,0.229-0.468,0.289c-0.49,0.148-0.947,0.305-1.374,0.473
	s-0.802,0.328-1.124,0.482c-0.381,0.188-0.717,0.365-1.008,0.533c0.14,1.15,0.229,2.199,0.27,3.146
	c0.024,0.404,0.035,0.814,0.037,1.229c0.001,0.414-0.01,0.795-0.036,1.143c-0.024,0.348-0.071,0.65-0.139,0.912
	c-0.067,0.26-0.152,0.443-0.251,0.557c-0.2,0.207-0.418,0.387-0.658,0.547c-0.24,0.154-0.466,0.262-0.681,0.32
	c-0.216,0.059-0.407,0.057-0.576,0c-0.169-0.061-0.283-0.199-0.341-0.424c-0.037-0.117-0.07-0.299-0.1-0.547
	c-0.029-0.246-0.056-0.523-0.082-0.83c-0.024-0.307-0.043-0.641-0.056-1.002c-0.015-0.361-0.03-0.713-0.05-1.059
	c-0.033-0.826-0.07-1.721-0.11-2.682c-0.057,0.033-0.116,0.074-0.173,0.123c-0.13,0.096-0.314,0.16-0.553,0.189
	c-0.328,0.064-0.581-0.012-0.76-0.229c-0.178-0.215-0.194-0.514-0.051-0.9c0.064-0.184,0.163-0.355,0.297-0.514
	c0.135-0.158,0.279-0.301,0.438-0.432c0.172-0.145,0.369-0.27,0.588-0.373c-0.14-1.15-0.228-2.26-0.257-3.328
	c-0.027-0.449-0.038-0.916-0.037-1.397c0.002-0.481,0.021-0.954,0.055-1.415s0.084-0.896,0.151-1.307s0.16-0.771,0.276-1.078
	c0.197-0.51,0.457-0.896,0.781-1.163c0.322-0.267,0.67-0.44,1.043-0.522c0.371-0.082,0.746-0.1,1.125-0.055
	c0.379,0.047,0.724,0.129,1.03,0.247c0.308,0.118,0.562,0.246,0.757,0.385C368.337,332.714,368.438,332.83,368.443,332.919"/>
<path fill="#010101" d="M369.533,339.724c-0.17-0.082-0.322-0.125-0.459-0.133s-0.261-0.008-0.373-0.002
	c-0.111,0.008-0.211,0.002-0.295-0.016c-0.082-0.018-0.158-0.086-0.227-0.201c-0.05-0.104,0.014-0.25,0.189-0.441
	c0.179-0.189,0.422-0.355,0.729-0.492c0.309-0.139,0.659-0.207,1.05-0.207c0.392,0,0.777,0.133,1.153,0.396
	c0.331,0.252,0.604,0.496,0.82,0.732c0.218,0.236,0.392,0.447,0.522,0.635c0.147,0.219,0.259,0.43,0.33,0.637
	c0.397-0.43,0.813-0.791,1.247-1.088c0.377-0.264,0.801-0.482,1.273-0.66c0.472-0.178,0.951-0.213,1.439-0.105
	c0.122,0.039,0.184,0.129,0.186,0.271c0,0.143-0.051,0.301-0.154,0.473s-0.247,0.338-0.434,0.5c-0.188,0.16-0.414,0.279-0.681,0.354
	c-0.519,0.15-0.922,0.4-1.211,0.748s-0.502,0.748-0.642,1.199c-0.141,0.453-0.219,0.932-0.235,1.438
	c-0.015,0.506-0.01,0.99,0.017,1.455c0.07,0.975-0.022,1.707-0.279,2.197c-0.26,0.488-0.627,0.762-1.106,0.818
	c-0.553,0.062-0.981-0.168-1.282-0.693s-0.488-1.434-0.562-2.725c-0.032-0.811-0.064-1.516-0.1-2.117
	c-0.033-0.6-0.086-1.105-0.153-1.516c-0.07-0.408-0.163-0.73-0.283-0.967C369.895,339.98,369.734,339.818,369.533,339.724"/>
<path fill="#010101" d="M377.942,339.445c0.187-0.42,0.444-0.787,0.772-1.107c0.328-0.318,0.692-0.585,1.096-0.796
	c0.4-0.212,0.828-0.376,1.281-0.493c0.452-0.116,0.896-0.188,1.332-0.212c0.451,0.004,0.846,0.129,1.185,0.374
	c0.338,0.242,0.586,0.568,0.745,0.973c0.158,0.404,0.212,0.865,0.158,1.381s-0.244,1.045-0.576,1.59
	c-0.357,0.594-0.748,1.045-1.176,1.357c-0.426,0.309-0.822,0.535-1.19,0.678c-0.427,0.176-0.853,0.268-1.272,0.275
	c0.019,0.572,0.106,1.057,0.264,1.453c0.07,0.178,0.152,0.342,0.244,0.494s0.207,0.287,0.351,0.398
	c0.142,0.111,0.312,0.188,0.509,0.23c0.199,0.041,0.424,0.031,0.676-0.027c0.535-0.123,0.963-0.346,1.283-0.672
	c0.321-0.328,0.583-0.656,0.791-0.984c0.206-0.328,0.374-0.611,0.504-0.852c0.129-0.242,0.264-0.336,0.402-0.285
	c0.169,0.066,0.266,0.25,0.292,0.549c0.024,0.299-0.028,0.656-0.154,1.072c-0.127,0.412-0.323,0.84-0.593,1.287
	c-0.268,0.443-0.618,0.828-1.051,1.154c-0.434,0.326-0.939,0.562-1.518,0.709c-0.58,0.146-1.236,0.127-1.97-0.057
	c-0.595-0.146-1.099-0.402-1.512-0.77c-0.413-0.369-0.746-0.801-1.001-1.299c-0.254-0.498-0.436-1.037-0.545-1.619
	c-0.109-0.58-0.153-1.16-0.133-1.742c0.02-0.582,0.1-1.139,0.242-1.674S377.709,339.833,377.942,339.445 M380.178,341.777
	c0.192-0.041,0.407-0.113,0.643-0.217c0.206-0.088,0.428-0.213,0.667-0.377s0.494-0.391,0.763-0.678
	c0.256-0.27,0.426-0.527,0.51-0.773c0.082-0.246,0.129-0.453,0.133-0.617c0.004-0.195-0.035-0.375-0.121-0.535
	c-0.213-0.049-0.438-0.035-0.674,0.039c-0.207,0.07-0.434,0.205-0.679,0.4s-0.491,0.494-0.739,0.9
	c-0.191,0.312-0.326,0.586-0.402,0.824c-0.078,0.238-0.127,0.432-0.148,0.584C380.109,341.511,380.125,341.66,380.178,341.777"/>
<path fill="#010101" d="M386.633,338.945c0.188-0.418,0.443-0.785,0.771-1.105s0.692-0.586,1.096-0.797
	c0.402-0.211,0.83-0.376,1.281-0.493c0.453-0.116,0.897-0.187,1.332-0.212c0.453,0.004,0.848,0.129,1.186,0.374
	c0.338,0.243,0.586,0.569,0.745,0.974c0.157,0.404,0.211,0.865,0.157,1.379c-0.054,0.516-0.244,1.047-0.576,1.592
	c-0.356,0.594-0.748,1.045-1.174,1.355c-0.428,0.311-0.824,0.537-1.192,0.678c-0.427,0.176-0.851,0.268-1.272,0.277
	c0.019,0.57,0.106,1.055,0.266,1.453c0.068,0.176,0.15,0.342,0.242,0.492c0.092,0.154,0.207,0.287,0.351,0.4
	c0.142,0.111,0.312,0.188,0.51,0.229s0.423,0.033,0.677-0.027c0.533-0.121,0.961-0.344,1.281-0.672
	c0.321-0.326,0.584-0.654,0.791-0.982s0.375-0.613,0.504-0.852c0.129-0.244,0.264-0.336,0.403-0.285
	c0.168,0.064,0.265,0.248,0.291,0.549c0.024,0.299-0.026,0.656-0.154,1.07c-0.127,0.412-0.323,0.842-0.593,1.287
	c-0.268,0.445-0.618,0.83-1.051,1.156c-0.434,0.326-0.939,0.562-1.518,0.707c-0.58,0.148-1.236,0.129-1.969-0.055
	c-0.595-0.148-1.1-0.404-1.512-0.771c-0.413-0.369-0.747-0.801-1.001-1.299c-0.255-0.496-0.437-1.035-0.545-1.617
	c-0.109-0.58-0.154-1.16-0.134-1.742c0.02-0.582,0.101-1.139,0.242-1.676C386.212,339.796,386.398,339.335,386.633,338.945
	 M388.867,341.279c0.192-0.043,0.408-0.113,0.644-0.219c0.205-0.086,0.427-0.211,0.667-0.377c0.238-0.164,0.493-0.389,0.762-0.676
	c0.256-0.27,0.426-0.529,0.51-0.773c0.084-0.246,0.129-0.453,0.135-0.617c0.003-0.197-0.037-0.377-0.121-0.535
	c-0.215-0.049-0.44-0.036-0.676,0.039c-0.207,0.07-0.434,0.203-0.678,0.398c-0.246,0.197-0.49,0.494-0.738,0.9
	c-0.193,0.312-0.328,0.588-0.404,0.824c-0.078,0.24-0.126,0.434-0.148,0.586C388.799,341.011,388.814,341.162,388.867,341.279"/>
<path fill="#010101" d="M368.914,367.482c-0.043-0.494-0.098-1.184-0.164-2.068s-0.125-1.854-0.178-2.902
	c-0.054-1.053-0.097-2.131-0.129-3.236c-0.033-1.104-0.035-2.117-0.006-3.037c0.03-0.92,0.102-1.691,0.217-2.316
	c0.115-0.623,0.289-0.986,0.524-1.092c0.413-0.174,0.829-0.205,1.249-0.094s0.804,0.297,1.15,0.555
	c0.346,0.258,0.638,0.561,0.875,0.898c0.238,0.34,0.381,0.652,0.428,0.936c0.218,0.922,0.27,1.762,0.154,2.521
	c-0.113,0.76-0.295,1.463-0.543,2.109c-0.25,0.646-0.518,1.242-0.803,1.785s-0.48,1.066-0.587,1.57
	c0.336-0.697,0.724-1.291,1.162-1.785c0.185-0.205,0.384-0.398,0.601-0.576c0.215-0.178,0.446-0.318,0.697-0.424
	c0.249-0.104,0.51-0.166,0.781-0.182c0.27-0.014,0.551,0.045,0.845,0.178c0.479,0.215,0.856,0.535,1.128,0.965
	c0.274,0.428,0.483,0.912,0.627,1.455c0.144,0.541,0.248,1.111,0.312,1.709s0.131,1.174,0.201,1.729
	c0.068,0.553,0.162,1.062,0.279,1.529c0.116,0.469,0.305,0.838,0.562,1.109c0.368,0.387,0.684,0.65,0.948,0.793
	s0.486,0.227,0.67,0.256c0.182,0.025,0.33,0.031,0.44,0.02c0.113-0.016,0.2,0.006,0.265,0.064c0.048,0.041,0.084,0.088,0.108,0.141
	c0.027,0.051,0.03,0.102,0.011,0.156s-0.082,0.117-0.183,0.191c-0.101,0.072-0.254,0.152-0.461,0.24
	c-0.396,0.158-0.918,0.207-1.56,0.146c-0.645-0.061-1.342-0.332-2.092-0.818c-0.375-0.232-0.67-0.578-0.885-1.031
	c-0.214-0.455-0.389-0.953-0.525-1.494c-0.137-0.543-0.248-1.094-0.332-1.654c-0.084-0.559-0.178-1.07-0.279-1.531
	c-0.104-0.461-0.232-0.832-0.393-1.117c-0.158-0.285-0.375-0.428-0.645-0.426c-0.271,0-0.506,0.115-0.704,0.344
	c-0.198,0.23-0.36,0.535-0.489,0.91c-0.13,0.375-0.229,0.801-0.301,1.271c-0.07,0.471-0.124,0.932-0.156,1.387
	c-0.035,0.453-0.056,0.883-0.062,1.289c-0.007,0.408-0.011,0.732-0.013,0.973c0.007,0.377-0.067,0.645-0.225,0.805
	c-0.156,0.16-0.344,0.244-0.561,0.258c-0.219,0.012-0.449-0.023-0.696-0.107c-0.245-0.084-0.446-0.172-0.603-0.27
	c-0.172-0.111-0.303-0.285-0.391-0.52c-0.09-0.236-0.156-0.475-0.199-0.713C368.941,368.113,368.918,367.814,368.914,367.482
	 M371.199,359.287c0.117-0.562,0.221-1.148,0.307-1.756c0.085-0.607,0.107-1.137,0.066-1.586c-0.057-0.447-0.14-0.83-0.246-1.15
	c-0.108-0.314-0.228-0.527-0.354-0.633c-0.127-0.105-0.246-0.08-0.357,0.076c-0.111,0.158-0.189,0.486-0.236,0.984
	c-0.047,0.5-0.059,1.1-0.033,1.799s0.068,1.367,0.126,2.002c0.06,0.637,0.138,1.396,0.233,2.281
	C370.916,360.523,371.08,359.851,371.199,359.287"/>
<path fill="#010101" d="M381.365,360.509c-0.006,0.152-0.006,0.408,0,0.771c0.006,0.359,0.021,0.76,0.047,1.203
	c0.024,0.443,0.065,0.904,0.123,1.381c0.059,0.48,0.137,0.916,0.233,1.309c0.099,0.395,0.229,0.715,0.394,0.959
	c0.166,0.248,0.367,0.365,0.608,0.352c0.345-0.02,0.634-0.166,0.867-0.436c0.233-0.268,0.429-0.604,0.586-1.004
	c0.159-0.4,0.274-0.848,0.353-1.342c0.076-0.492,0.136-0.975,0.178-1.445c0.04-0.469,0.06-0.906,0.059-1.312
	s-0.001-0.723,0.002-0.949c-0.001-0.271,0.067-0.471,0.203-0.6c0.135-0.127,0.309-0.199,0.518-0.221
	c0.211-0.02,0.437,0.01,0.684,0.086c0.245,0.074,0.477,0.174,0.693,0.299c0.22,0.121,0.4,0.266,0.545,0.43
	c0.145,0.166,0.229,0.332,0.256,0.494c0.027,0.225,0.039,0.553,0.033,0.98c-0.006,0.43-0.004,0.912,0.004,1.445
	c0.008,0.535,0.027,1.084,0.06,1.646c0.033,0.562,0.104,1.078,0.213,1.547c0.11,0.469,0.261,0.865,0.453,1.193
	s0.448,0.52,0.767,0.576c0.289,0.059,0.49,0.145,0.603,0.26s0.129,0.23,0.054,0.348c-0.076,0.117-0.236,0.211-0.479,0.287
	c-0.245,0.074-0.579,0.086-1.005,0.035c-0.696-0.08-1.242-0.291-1.639-0.629c-0.396-0.34-0.695-0.697-0.897-1.078
	c-0.237-0.439-0.392-0.926-0.47-1.465c-0.16,0.613-0.385,1.145-0.676,1.598c-0.246,0.406-0.576,0.762-0.988,1.062
	c-0.412,0.303-0.928,0.426-1.549,0.371s-1.139-0.225-1.554-0.51c-0.416-0.283-0.759-0.637-1.032-1.059
	c-0.271-0.42-0.484-0.885-0.634-1.396s-0.262-1.027-0.338-1.551c-0.069-0.418-0.115-0.838-0.14-1.258s-0.031-0.811-0.022-1.172
	c0.009-0.363,0.037-0.674,0.082-0.932c0.045-0.26,0.104-0.428,0.175-0.506c0.086-0.08,0.268-0.176,0.549-0.281
	c0.279-0.105,0.572-0.172,0.881-0.197c0.308-0.025,0.584,0.008,0.83,0.1S381.363,360.193,381.365,360.509"/>
<path fill="#010101" d="M399.842,365.615c0.322-0.152,0.574-0.227,0.756-0.223s0.297,0.055,0.348,0.15
	c0.05,0.094,0.038,0.219-0.036,0.373c-0.073,0.156-0.196,0.305-0.369,0.451c-0.144,0.113-0.319,0.268-0.526,0.459
	s-0.422,0.396-0.644,0.613c-0.22,0.215-0.435,0.428-0.64,0.635c-0.207,0.207-0.381,0.375-0.525,0.504
	c0.146,0.701,0.247,1.412,0.305,2.141c0.056,0.727,0.051,1.428-0.016,2.102s-0.205,1.299-0.412,1.875
	c-0.208,0.578-0.504,1.057-0.888,1.441c-0.541,0.543-1.103,0.869-1.685,0.977c-0.58,0.109-1.103,0.041-1.568-0.203
	c-0.467-0.244-0.844-0.641-1.131-1.189c-0.287-0.547-0.401-1.207-0.34-1.979c0.076-0.787,0.279-1.494,0.612-2.113
	c0.333-0.623,0.691-1.146,1.074-1.574c0.452-0.51,0.946-0.951,1.481-1.328c-0.021-0.119-0.062-0.283-0.117-0.49
	c-0.041-0.18-0.107-0.404-0.197-0.678c-0.092-0.273-0.21-0.623-0.355-1.053c-0.09-0.252-0.196-0.49-0.322-0.715
	c-0.127-0.227-0.247-0.42-0.361-0.578c-0.146-0.188-0.284-0.354-0.413-0.496c-0.224,0.283-0.458,0.539-0.7,0.762
	c-0.201,0.193-0.425,0.369-0.671,0.525c-0.247,0.156-0.483,0.242-0.709,0.254c-0.239,0.014-0.517-0.098-0.832-0.334
	c-0.315-0.238-0.6-0.561-0.856-0.967c-0.258-0.408-0.465-0.879-0.623-1.41c-0.158-0.535-0.209-1.088-0.153-1.664
	c0.073-0.576,0.181-1.041,0.328-1.396c0.144-0.354,0.308-0.639,0.492-0.854c0.183-0.213,0.386-0.371,0.604-0.475
	c0.221-0.104,0.442-0.182,0.664-0.24c0.326-0.08,0.725-0.057,1.19,0.066c0.467,0.123,0.913,0.291,1.339,0.498
	c0.425,0.211,0.793,0.43,1.1,0.66s0.455,0.414,0.448,0.551c-0.006,0.137-0.166,0.193-0.476,0.174s-0.664-0.049-1.066-0.086
	c-0.4-0.037-0.793-0.045-1.175-0.023c-0.384,0.023-0.644,0.158-0.779,0.408c-0.136,0.248-0.239,0.541-0.312,0.875
	c-0.069,0.336-0.108,0.67-0.111,1c-0.003,0.332,0.033,0.637,0.107,0.908c0.076,0.275,0.201,0.475,0.375,0.6
	c0.095,0.072,0.217,0.037,0.367-0.1c0.149-0.137,0.323-0.305,0.524-0.504c0.198-0.199,0.42-0.393,0.667-0.58
	c0.245-0.188,0.512-0.309,0.803-0.363c0.29-0.053,0.6,0.004,0.924,0.174c0.326,0.17,0.67,0.514,1.031,1.035
	c0.213,0.305,0.441,0.656,0.682,1.057c0.242,0.4,0.468,0.979,0.677,1.734c0.376-0.262,0.729-0.512,1.063-0.75
	C399.127,366.015,399.477,365.802,399.842,365.615 M395.68,374.144c0.074-0.26,0.111-0.59,0.111-0.988s-0.011-0.795-0.033-1.186
	c-0.041-0.449-0.091-0.92-0.149-1.412c-0.3,0.287-0.562,0.588-0.783,0.902c-0.196,0.268-0.362,0.576-0.5,0.934
	c-0.138,0.354-0.181,0.725-0.128,1.113c0.051,0.373,0.148,0.643,0.295,0.807c0.145,0.164,0.296,0.254,0.456,0.268
	c0.158,0.014,0.306-0.025,0.444-0.115C395.53,374.375,395.625,374.267,395.68,374.144"/>
<path fill="#010101" d="M404.832,356.927c0.065,0.115,0.064,0.211-0.006,0.281c-0.072,0.072-0.178,0.146-0.314,0.223
	c-0.141,0.076-0.297,0.168-0.471,0.275c-0.176,0.107-0.34,0.256-0.494,0.447c-0.154,0.188-0.28,0.43-0.377,0.721
	s-0.131,0.656-0.106,1.09c0.01,0.436,0.135,0.852,0.376,1.244s0.531,0.77,0.868,1.137c0.337,0.363,0.703,0.719,1.101,1.064
	c0.396,0.348,0.754,0.703,1.076,1.068c0.323,0.365,0.581,0.742,0.777,1.131c0.195,0.387,0.275,0.791,0.238,1.217
	c-0.051,0.424-0.267,0.793-0.647,1.109c-0.38,0.314-0.851,0.568-1.413,0.76c-0.561,0.189-1.171,0.311-1.831,0.363
	s-1.282,0.031-1.866-0.062c-0.587-0.094-1.098-0.264-1.533-0.51s-0.717-0.576-0.847-0.99c-0.2-0.605-0.278-1.121-0.235-1.545
	s0.146-0.781,0.311-1.068c0.165-0.289,0.355-0.518,0.57-0.688c0.218-0.17,0.404-0.307,0.564-0.406
	c0.334-0.215,0.563-0.227,0.688-0.039c0.123,0.188,0.07,0.502-0.161,0.936c-0.108,0.219-0.124,0.455-0.05,0.715
	c0.074,0.258,0.228,0.498,0.459,0.719c0.23,0.221,0.521,0.402,0.867,0.549c0.349,0.146,0.738,0.213,1.176,0.203
	c0.271,0,0.543-0.043,0.816-0.125c0.274-0.084,0.496-0.201,0.67-0.355c0.172-0.152,0.271-0.332,0.297-0.537
	c0.024-0.205-0.066-0.428-0.276-0.672s-0.567-0.547-1.069-0.91c-0.503-0.363-1.019-0.766-1.549-1.209
	c-0.529-0.445-1.002-0.922-1.416-1.434c-0.412-0.51-0.634-1.037-0.666-1.576c-0.061-1.064,0.086-1.857,0.439-2.375
	c0.354-0.518,0.955-0.875,1.803-1.074c0.416-0.098,0.759-0.152,1.029-0.158c0.271-0.01,0.486,0.012,0.647,0.062
	s0.282,0.115,0.362,0.193C404.719,356.781,404.783,356.855,404.832,356.927"/>
<path fill="#6C3494" d="M304.122,350.562c1.168-1.201,2.704,2.227,5.462,4.207c5.293,3.801,10.382,3.916,10.382,3.916
	s1.877-5.461,7.084-6.504c3.916-0.785,3.368,2.176,3.368,2.176s-3.329,1.646-3.736,3.035c3.317,1.594,4.678,1.004,8.812-0.182
	c4.099-1.176,1.236,10.781-0.369,11.273c-1.605,0.494-9.777,2.621-14.779-6.125c-2.994,0.086-8.537,0.059-11.412-1.129
	c-1.785-0.738-5.205-1.949-6.34-3.494C301.46,356.191,302.954,351.761,304.122,350.562"/>
<path fill="#6C3494" d="M461.766,350.562c-1.168-1.201-2.705,2.227-5.463,4.207c-5.293,3.801-10.382,3.916-10.382,3.916
	s-1.877-5.461-7.084-6.504c-3.916-0.785-3.368,2.176-3.368,2.176s3.329,1.646,3.737,3.035c-3.317,1.594-4.679,1.004-8.813-0.182
	c-4.099-1.176-1.235,10.781,0.369,11.273c1.605,0.494,9.777,2.621,14.779-6.125c2.994,0.086,8.538,0.059,11.412-1.129
	c1.785-0.738,5.206-1.949,6.34-3.494C464.428,356.191,462.934,351.761,461.766,350.562"/>
<path fill="#6C3494" d="M49.654,50.251c0,0-5.773-0.186-11.546-4.656c-5.774-4.469-8.195-8.753-8.195-8.753s4.284-3.911,3.166-9.125
	c-0.84-3.923-3.352-2.235-3.352-2.235s-0.186,3.725-1.304,4.656c-2.793-2.421-2.793-3.911-3.352-8.194
	c-0.554-4.248-10.429,3.166-10.243,4.842c0.187,1.676,1.49,10.056,11.547,11.174c1.117,2.793,3.725,8.753,10.615,14.153
	c7.857,6.158,10.988,4.656,10.988,4.656L49.654,50.251z"/>
<path fill="#6C3494" d="M42.333,69.276c0,0-5.379,2.105-12.447,0.273c-7.067-1.832-10.981-4.814-10.981-4.814
	s2.395-5.282-0.688-9.634c-2.319-3.274-3.962-0.732-3.962-0.732s1.298,3.496,0.638,4.792c-3.522-1.123-4.109-2.493-6.311-6.209
	c-2.184-3.685-8.337,7.021-7.505,8.488c0.832,1.467,5.334,8.655,15.017,5.717c2.128,2.127,6.873,6.576,15.335,8.822
	c9.648,2.562,11.933-0.053,11.933-0.053L42.333,69.276z"/>
<path fill="#6C3494" d="M168.311,50.251c0,0,5.773-0.186,11.545-4.656c5.775-4.469,8.195-8.753,8.195-8.753
	s-4.283-3.911-3.166-9.125c0.84-3.923,3.352-2.235,3.352-2.235s0.188,3.725,1.305,4.656c2.793-2.421,2.793-3.911,3.352-8.194
	c0.555-4.248,10.43,3.166,10.242,4.842c-0.186,1.676-1.488,10.056-11.545,11.174c-1.117,2.793-3.727,8.753-10.615,14.153
	c-7.857,6.158-10.988,4.656-10.988,4.656L168.311,50.251z"/>
<path fill="#6C3494" d="M175.631,69.276c0,0,5.379,2.105,12.447,0.273c7.066-1.832,10.98-4.814,10.98-4.814
	s-2.395-5.282,0.688-9.634c2.32-3.274,3.963-0.732,3.963-0.732s-1.299,3.496-0.639,4.792c3.523-1.123,4.109-2.493,6.312-6.209
	c2.184-3.685,8.336,7.021,7.504,8.488c-0.832,1.467-5.334,8.655-15.018,5.717c-2.127,2.127-6.873,6.576-15.334,8.822
	c-9.648,2.562-11.934-0.053-11.934-0.053L175.631,69.276z"/>
<path fill="#C8B299" d="M160.682,142.197c0,6.479-23.262,11.733-51.959,11.733c-28.695,0-51.958-5.254-51.958-11.733
	s23.263-11.733,51.958-11.733C137.42,130.463,160.682,135.717,160.682,142.197"/>
<path fill="#6C3494" d="M78.474,117.717c0,0,2.955,4.566,3.223,7.924c0.269,3.357,0.135,13.297,0.135,13.297s2.291,2.89,8.729,3.223
	c7.791,0.402,11.013-2.686,11.013-2.686s0.207-16.787,2.758-19.34C97.35,120.135,78.474,117.717,78.474,117.717"/>
<path fill="#6C3494" d="M138.973,117.717c0,0-2.955,4.566-3.223,7.924c-0.27,3.357-0.135,13.297-0.135,13.297
	s-2.291,2.89-8.73,3.223c-7.789,0.402-11.012-2.686-11.012-2.686s-0.207-16.787-2.76-19.34
	C120.098,120.135,138.973,117.717,138.973,117.717"/>
<path fill="#8555A2" d="M179.674,81.516c0.006-4.537-0.832-9.65-2.527-14.959c-7.023-22.579-28.807-48.939-66.949-48.939
	c-0.451,0-0.895,0.011-1.34,0.018c-0.447-0.007-0.893-0.018-1.342-0.018c-38.144,0-59.926,26.36-66.95,48.939
	c-1.695,5.309-2.532,10.422-2.527,14.959c-0.026,3.449,0.414,6.543,1.315,9.104c3.147,8.942,9.507,17.136,24.038,22.669
	c10.538,4.592,24.933,7.557,44.198,7.128c0.428-0.009,0.846-0.022,1.268-0.032c0.42,0.01,0.838,0.023,1.266,0.032
	c19.266,0.429,33.66-2.536,44.197-7.128c14.531-5.533,20.891-13.727,24.039-22.669C179.26,88.059,179.699,84.965,179.674,81.516"/>
<g opacity="0.5">
	<g>
		<defs>
			<rect id="SVGID_3_" x="108.855" y="17.617" width="70.82" height="102.842"/>
		</defs>
		<clipPath id="SVGID_4_">
			<use xlink:href="#SVGID_3_"  overflow="visible"/>
		</clipPath>
		<path clip-path="url(#SVGID_4_)" fill="#6C3494" d="M177.146,66.557c-7.023-22.578-28.807-48.939-66.949-48.939
			c-0.451,0-0.895,0.011-1.342,0.018v102.749c0.424,0.011,0.84,0.024,1.268,0.033c19.266,0.428,33.66-2.535,44.199-7.128
			c14.529-5.534,20.889-13.725,24.037-22.669c0.9-2.562,1.34-5.656,1.314-9.104C179.68,76.979,178.842,71.866,177.146,66.557"/>
	</g>
</g>
<path fill="#FFFFFF" d="M108.406,44.772c9.777,0,20.766-1.862,23.279-11.36c4.115-15.546-10.057-28.308-22.719-27.935
	c0,0-25.367,0.299-23.653,24.862C86.152,42.351,98.629,44.772,108.406,44.772"/>
<path fill="#8555A2" d="M108.406,46.448c-15.25,0-24.044-5.68-24.764-15.993c-0.53-7.597,1.354-13.786,5.602-18.394
	c7.394-8.024,19.203-8.254,19.701-8.261c0.168-0.005,0.363-0.007,0.562-0.007c7.322,0,14.863,3.888,19.682,10.147
	c4.504,5.85,5.967,12.918,4.117,19.9C131.092,42.208,122.715,46.448,108.406,46.448 M109.508,7.146
	c-0.166,0-0.328,0.002-0.494,0.007c-0.135,0.002-10.922,0.237-17.319,7.197c-3.587,3.902-5.171,9.243-4.708,15.873
	c0.742,10.64,12.058,12.874,21.419,12.874c12.773,0,19.857-3.309,21.66-10.113c1.574-5.955,0.32-11.992-3.533-16.998
	C122.4,10.615,115.717,7.146,109.508,7.146"/>
<path fill="#242D17" d="M109.152,18.258c-0.361,0-0.729,0.02-1.098,0.054c1.584,1.399,2.588,3.44,2.588,5.719
	c0,4.217-3.42,7.636-7.637,7.636c-3.033,0-5.646-1.774-6.879-4.338c-0.59,1.565-0.801,2.928-0.385,4.837
	c1.863,8.567,11.174,8.254,13.41,8.254c3.164,0,12.012-1.099,13.221-9.743C123.676,21.365,114.738,18.258,109.152,18.258"/>
<path fill="#FFFFFF" d="M116.104,35.341c0,1.442-1.168,2.61-2.609,2.61s-2.609-1.168-2.609-2.61s1.168-2.61,2.609-2.61
	S116.104,33.899,116.104,35.341"/>
<path fill="#010101" d="M158.658,68.872c0.02-2.9-0.83-5.413-2.609-7.246c-0.955-0.983-2.039-1.76-3.223-2.371
	c-2.51-1.487-5.42-2.033-9.605-1.984c-0.867-0.01-1.744,0.004-2.627,0.044c-12.328,0.552-23.936,1.454-31.771,1.463
	c-7.84-0.009-19.446-0.911-31.774-1.463c-0.883-0.04-1.76-0.054-2.627-0.044c-4.186-0.049-7.096,0.497-9.606,1.984
	c-1.183,0.611-2.268,1.388-3.222,2.371c-1.779,1.833-2.63,4.345-2.61,7.246c-0.018,3.229,1.072,6.707,2.459,9.889
	c0.994,2.281,2.676,4.811,4.917,7.381c7.405,10.076,19.724,19.334,40.783,19.833c0.521,0.019,1.043,0.03,1.566,0.03
	c0.039,0,0.074-0.002,0.113-0.002c0.035,0,0.072,0.002,0.109,0.002c0.525,0,1.047-0.012,1.568-0.03
	c21.059-0.499,33.377-9.757,40.783-19.833c2.24-2.57,3.922-5.1,4.916-7.381C157.586,75.579,158.676,72.101,158.658,68.872"/>
<path fill="#FFFFFF" d="M109.373,58.772c0.477,4.401,2.213,10.977,9.434,11.029c8.605,0.062,8.521-8.486,8.547-11.787
	C122.873,58.278,114.379,58.772,109.373,58.772"/>
<path fill="#FFFFFF" d="M108.328,58.772c-0.477,4.401-2.213,10.977-9.434,11.029c-8.605,0.062-8.521-8.486-8.546-11.787
	C94.828,58.278,103.322,58.772,108.328,58.772"/>
<g>
	<defs>
		<path id="SVGID_5_" d="M140.627,57.315c-12.326,0.552-23.934,1.454-31.771,1.463c-7.836-0.009-19.443-0.911-31.771-1.463
			c-0.883-0.04-1.76-0.054-2.628-0.044c-4.185-0.049-7.095,0.498-9.605,1.984c-1.184,0.611-2.268,1.388-3.222,2.371
			c-1.779,1.833-2.63,4.344-2.61,7.246c-0.018,3.229,1.072,6.707,2.459,9.887c0.994,2.283,2.676,4.812,4.916,7.383
			c7.406,10.076,19.725,19.334,40.784,19.833c0.521,0.019,1.045,0.03,1.568,0.03c0.035,0,0.072-0.002,0.109-0.002
			c0.039,0,0.074,0.002,0.113,0.002c0.523,0,1.045-0.012,1.566-0.03c21.059-0.499,33.377-9.757,40.783-19.833
			c2.24-2.57,3.922-5.1,4.916-7.383c1.387-3.18,2.477-6.657,2.459-9.887c0.021-2.9-0.83-5.413-2.609-7.246
			c-0.955-0.983-2.039-1.76-3.223-2.371c-2.508-1.486-5.42-2.033-9.605-1.984c-0.176-0.002-0.352-0.003-0.529-0.003
			C142.031,57.268,141.332,57.283,140.627,57.315"/>
	</defs>
	<clipPath id="SVGID_6_">
		<use xlink:href="#SVGID_5_"  overflow="visible"/>
	</clipPath>
	<path clip-path="url(#SVGID_6_)" fill="#754D25" d="M124.779,107.021l3.225,0.884c0,0,6.051-5.631,7.271-13.607
		c1.723-11.252-10.941-20.453-10.941-20.453l-3.771,13.143L124.779,107.021z"/>
	<path clip-path="url(#SVGID_6_)" fill="#8D633A" d="M124.779,107.021c0,0,2.174-9.19-2.045-18.853
		c-4.217-9.662-11.611-14.926-11.611-14.926l-3.172,10.306L124.779,107.021z"/>
	<path clip-path="url(#SVGID_6_)" fill="#A67D52" d="M124.779,107.021c0,0-0.91-9.17-7.619-19.379
		c-6.525-9.929-15.9-16.472-15.9-16.472l-3.592,11.607L124.779,107.021z"/>
	<path clip-path="url(#SVGID_6_)" fill="#C8B299" d="M124.779,107.021c-2.398-4.924-7.203-12.774-19.16-21.194
		c-7.539-5.311-15.439-8.024-15.439-8.024l-17.61,54.47c0,0,10.237,0.916,17.721,5.41c10.479,6.293,19.542,15.572,19.542,15.572
		L124.779,107.021z"/>
</g>
</svg>
